<svg id="afekt" xmlns="http://www.w3.org/2000/svg" xmlns:xlink="http://www.w3.org/1999/xlink" width="139" height="139" viewBox="0 0 139 139">
  <defs>
    <clipPath id="clip-path">
      <rect id="Rectangle_77" data-name="Rectangle 77" width="112.253" height="71.821" fill="none" stroke="#965506" stroke-width="4"/>
    </clipPath>
  </defs>
  <rect id="Rectangle_81" data-name="Rectangle 81" width="139" height="139" rx="15" transform="translate(0 139) rotate(-90)" fill="#eaddcd" opacity="0.34"/>
  <g id="Group_48" data-name="Group 48" transform="translate(14.881 29)">
    <g id="Group_47" data-name="Group 47" clip-path="url(#clip-path)">
      <path id="Path_104" data-name="Path 104" d="M56.534,11.818c.043-.037.086-.074.132-.107a34.134,34.134,0,1,0,1.619,54.027l-.147-.107a34.068,34.068,0,0,0,12.2-23.052c.1-1.061.151-2.14.151-3.229A34.081,34.081,0,0,0,56.534,11.818Zm-3.462,37.2A17.629,17.629,0,0,1,36.7,60.111h-.132A17.624,17.624,0,0,1,20.2,49.02a2.249,2.249,0,0,1,3.342-2.7,23.491,23.491,0,0,0,13.028,3.918H36.7a23.493,23.493,0,0,0,13.031-3.918A2.25,2.25,0,0,1,53.072,49.02Z" transform="translate(-1.348 -2.813)" fill="none" stroke="#965506" stroke-linecap="round" stroke-linejoin="round" stroke-width="4"/>
      <path id="Path_105" data-name="Path 105" d="M73.592,96.693a17.629,17.629,0,0,1-16.374,11.091h-.132a17.624,17.624,0,0,1-16.37-11.091,2.249,2.249,0,0,1,3.342-2.7,23.49,23.49,0,0,0,13.028,3.918h.132A23.493,23.493,0,0,0,70.25,93.988,2.25,2.25,0,0,1,73.592,96.693Z" transform="translate(-21.869 -50.486)" fill="none" stroke="#965506" stroke-linecap="round" stroke-linejoin="round" stroke-width="4"/>
      <path id="Path_106" data-name="Path 106" d="M134.04,46.954q0,1.564-.138,3.088a33.886,33.886,0,0,1-2.677,10.505,34.227,34.227,0,0,1-9.536,12.688c-.043.037-.086.074-.132.107-.049-.036-.1-.07-.147-.107a34.066,34.066,0,0,0,12.2-23.052c.1-1.061.15-2.14.15-3.229a34.079,34.079,0,0,0-13.954-27.532c.043-.037.086-.074.132-.107l.147.107A34.079,34.079,0,0,1,134.04,46.954Z" transform="translate(-64.621 -10.418)" fill="none" stroke="#965506" stroke-linecap="round" stroke-linejoin="round" stroke-width="4"/>
      <path id="Path_107" data-name="Path 107" d="M119.806,10.353c.043-.037.086-.074.132-.107a34.132,34.132,0,1,1,1.619,54.027c-.049-.037-.1-.07-.147-.107" transform="translate(-64.621 -1.348)" fill="none" stroke="#965506" stroke-linecap="round" stroke-linejoin="round" stroke-width="4"/>
      <path id="Path_108" data-name="Path 108" d="M73.592,96.693a17.629,17.629,0,0,1-16.374,11.091h-.132a17.624,17.624,0,0,1-16.37-11.091,2.249,2.249,0,0,1,3.342-2.7,23.49,23.49,0,0,0,13.028,3.918h.132A23.493,23.493,0,0,0,70.25,93.988,2.25,2.25,0,0,1,73.592,96.693Z" transform="translate(-21.869 -50.486)" fill="none" stroke="#965506" stroke-linecap="round" stroke-linejoin="round" stroke-width="4"/>
      <path id="Path_109" data-name="Path 109" d="M167.526,96.177A23.488,23.488,0,0,0,154.5,92.259h-.132a23.5,23.5,0,0,0-10.186,2.306c-.12.055-.239.113-.356.175A33.97,33.97,0,0,0,146.565,84.2c.1-.052.193-.1.291-.141a17.536,17.536,0,0,1,7.509-1.677h.132a17.624,17.624,0,0,1,16.371,11.091A2.249,2.249,0,0,1,167.526,96.177Z" transform="translate(-77.576 -44.435)" fill="none" stroke="#965506" stroke-linecap="round" stroke-linejoin="round" stroke-width="4"/>
    </g>
  </g>
</svg>
