<svg id="stresilek" xmlns="http://www.w3.org/2000/svg" xmlns:xlink="http://www.w3.org/1999/xlink" width="139" height="139" viewBox="0 0 139 139">
  <defs>
    <clipPath id="clip-path">
      <rect id="Rectangle_76" data-name="Rectangle 76" width="77.956" height="98.468" fill="none" stroke="#965506" stroke-width="4"/>
    </clipPath>
  </defs>
  <g id="Group_99" data-name="Group 99" transform="translate(-1187 -809)">
    <rect id="Rectangle_81" data-name="Rectangle 81" width="139" height="139" rx="15" transform="translate(1187 809)" fill="#eaddcd" opacity="0.34"/>
  </g>
  <g id="Group_46" data-name="Group 46" transform="translate(29.107 16)">
    <g id="Group_45" data-name="Group 45" clip-path="url(#clip-path)">
      <path id="Path_99" data-name="Path 99" d="M9.621,27.405,21.508,39.293l-9.246,2.2L22.829,50.74" transform="translate(-4.326 -12.323)" fill="none" stroke="#965506" stroke-linecap="round" stroke-linejoin="round" stroke-width="4"/>
      <path id="Path_100" data-name="Path 100" d="M66.5,2.5l4.812,16.108-9.181-2.456,4.9,13.156" transform="translate(-27.936 -1.124)" fill="none" stroke="#965506" stroke-linecap="round" stroke-linejoin="round" stroke-width="4"/>
      <path id="Path_101" data-name="Path 101" d="M119.555,26.836l-5.71,15.812-5.921-7.434-3.88,13.493" transform="translate(-46.783 -12.067)" fill="none" stroke="#965506" stroke-linecap="round" stroke-linejoin="round" stroke-width="4"/>
      <path id="Path_102" data-name="Path 102" d="M74.445,91.931A19.791,19.791,0,1,1,54.654,72.14,19.769,19.769,0,0,1,74.445,91.931Z" transform="translate(-15.676 -32.438)" fill="none" stroke="#965506" stroke-linecap="round" stroke-linejoin="round" stroke-width="4"/>
      <path id="Path_103" data-name="Path 103" d="M2.5,149.954a37.571,37.571,0,0,1,18.505-32.393,19.8,19.8,0,0,0,38.194,0A37.571,37.571,0,0,1,77.7,149.954" transform="translate(-1.124 -52.861)" fill="none" stroke="#965506" stroke-linecap="round" stroke-linejoin="round" stroke-width="4"/>
    </g>
  </g>
</svg>
